<?xml version="1.0" encoding="utf-8"?>
<!-- Generator: Adobe Illustrator 27.9.0, SVG Export Plug-In . SVG Version: 6.00 Build 0)  -->
<svg version="1.1" id="Layer_1" xmlns="http://www.w3.org/2000/svg" xmlns:xlink="http://www.w3.org/1999/xlink" x="0px" y="0px"
	 viewBox="0 0 400 200" style="enable-background:new 0 0 400 200;" xml:space="preserve">
<style type="text/css">
	.st0{fill:#1B868D;}
</style>
<g>
	<path class="st0" d="M35.36,81.45c0,4.45-5.03,8.09-8.9,8.09c-1.16,0-1.96-0.64-1.96-1.39c0-3.58-0.87-5.55-3-5.55
		s-5.08,2.08-5.08,8.5c0,4.74,2.25,8.49,5.95,8.49c4.22,0,6.76-4.16,8.49-4.16c1.68,0,6.7,3.76,6.7,6.93
		c0,2.08-6.12,8.78-16.35,8.78c-13.35,0-20.05-8.44-20.05-19.42c0-13.23,10.11-21.15,20.17-21.15
		C29.82,70.59,35.36,75.33,35.36,81.45z"/>
	<path class="st0" d="M98.7,89.95c0,6.24-0.98,8.78-0.98,11.09c0,3.99,1.39,3.93,1.39,5.14c0,1.73-4.91,4.85-8.21,4.85
		c-2.66,0-3.35-2.31-3.99-2.31c-0.69,0-3.99,2.2-8.21,2.2c-5.95,0-9.07-3.29-9.07-7.45c0-11.44,16.93-10.34,16.93-13.52
		c0-0.64-0.58-1.21-1.79-1.21c-5.14,0-8.78,4.1-10.63,4.1c-1.5,0-1.96-2.02-1.96-3.93c0-1.33,0.17-2.6,0.52-3.18
		c1.33-2.95,6.82-5.55,14.27-5.55C93.09,80.18,98.7,83.71,98.7,89.95z M80.38,101.96c0,1.1,0.64,1.62,1.79,1.62
		c1.56,0,4.62-2.77,4.62-4.28c0-0.75-0.23-1.33-0.81-1.33C83.85,97.98,80.38,100.46,80.38,101.96z"/>
	<path class="st0" d="M121.29,91.91c-1.5,0-3.12-3.93-5.55-3.93c-0.87,0-1.39,0.64-1.39,1.33c0,3.64,12.42,4.45,12.42,12.6
		c0,4.74-4.45,9.48-11.5,9.48c-8.09,0-14.74-4.51-14.74-6.76c0-2.72,3.76-6.41,5.89-6.41c1.68,0,3.47,4.28,6.88,4.28
		c0.81,0,1.44-0.75,1.44-1.5c0-3.24-11.33-3.35-11.33-12.19c0-5.08,4.45-8.55,11.79-8.55c7.34,0,10.98,3.93,10.98,5.66
		C126.21,87.98,123.08,91.91,121.29,91.91z"/>
	<path class="st0" d="M129.44,91.39c-0.69,0-1.21-0.35-1.21-1.33c0-3.06,1.85-9.07,4.39-9.07c0.52,0,0.81-0.23,0.81-0.81
		c0-2.72-1.68-4.39-1.68-6.18c0-3,7.8-6.88,11.73-6.88c2.43,0,3.35,1.04,3.35,3c0,2.43-0.75,6.01-0.75,9.53
		c0,0.75,0.35,1.1,0.98,1.1c1.33,0,3-0.4,3.93-0.4c0.87,0,1.27,0.69,1.27,1.44c0,4.68-1.44,8.26-3.76,8.84
		c-2.08,0.52-2.48,1.04-2.48,5.61c0,6.99,0.98,7.22,0.98,9.53s-4.45,5.78-11.61,5.78c-2.2,0-3.47-0.87-3.47-3
		c0-3.7,1.1-9.19,1.1-16.82c0-0.75-0.29-0.98-0.75-0.98C131.64,90.75,130.25,91.39,129.44,91.39z"/>
	<path class="st0" d="M179.83,89.95c0,6.24-0.98,8.78-0.98,11.09c0,3.99,1.39,3.93,1.39,5.14c0,1.73-4.91,4.85-8.21,4.85
		c-2.66,0-3.35-2.31-3.99-2.31c-0.69,0-3.99,2.2-8.21,2.2c-5.95,0-9.07-3.29-9.07-7.45c0-11.44,16.93-10.34,16.93-13.52
		c0-0.64-0.58-1.21-1.79-1.21c-5.14,0-8.78,4.1-10.63,4.1c-1.5,0-1.96-2.02-1.96-3.93c0-1.33,0.17-2.6,0.52-3.18
		c1.33-2.95,6.82-5.55,14.27-5.55C174.23,80.18,179.83,83.71,179.83,89.95z M161.51,101.96c0,1.1,0.64,1.62,1.79,1.62
		c1.56,0,4.62-2.77,4.62-4.28c0-0.75-0.23-1.33-0.81-1.33C164.98,97.98,161.51,100.46,161.51,101.96z"/>
	<path class="st0" d="M196.65,71.11c0,5.61-1.73,15.2-1.73,26.47c0,3.87,2.08,5.89,2.08,8.21s-3.99,5.78-10.63,5.78
		c-2.54,0-3.81-1.27-3.81-3.52c0-4.04,1.16-10.17,1.16-17.05c0-8.44-1.91-14.74-1.91-17.74s6.36-6.53,11.09-6.53
		C195.32,66.72,196.65,68.1,196.65,71.11z"/>
	<path class="st0" d="M245.07,90.58c0,14.56-8.73,20.57-20.28,20.57c-6.3,0-11.5-2.2-12.31-4.22c-1.04-2.66-1.73-7.86-1.73-14.85
		c0-7.05,0.69-14.21,1.27-16.12c0.58-1.91,0.92-2.72,2.89-3.47c1.96-0.75,5.03-1.73,9.77-1.73C236,70.76,245.07,76.02,245.07,90.58z
		 M224.56,85.9c0,5.26,0.06,10.69,0.17,11.56c0.17,1.21,0.75,1.56,1.5,1.56c2.08,0,4.68-3.99,4.68-8.61c0-4.62-2.37-6.82-4.16-6.82
		C225.43,83.59,224.56,84.11,224.56,85.9z"/>
	<path class="st0" d="M293.38,85.67c1.33-1.85,5.32-4.91,10.05-4.91c5.37,0,9.07,2.89,9.07,7.45c0,4.62-1.56,6.7-1.56,9.94
		c0,5.43,1.1,5.89,1.1,7.63c0,2.43-5.66,4.68-10.4,4.68c-2.83,0-3.99-1.39-3.99-3.64c0-3.7,2.02-9.07,2.02-13
		c0-2.31-0.64-3.06-1.73-3.06c-1.73,0-4.04,2.37-4.04,5.89c0,9.13-0.35,13.98-4.74,13.98c-3.81,0-9.13-1.96-9.13-4.33
		c0-1.91,0.87-3.29,0.87-8.55c0-4.33-1.96-8.21-1.96-10.98c0-2.31,5.78-5.2,10.05-5.2C291.94,81.57,292.81,83.94,293.38,85.67z"/>
	<path class="st0" d="M330.37,84.69c0,5.61-1.79,9.42-1.79,13.64c0,1.33,0.69,2.14,1.62,2.14c2.02,0,4.04-2.31,4.04-7.63
		c0-2.72-1.04-4.39-1.04-6.88c0-2.14,4.68-4.51,10-4.51c2.77,0,4.62,1.27,4.62,4.28c0,4.1-2.14,8.44-2.14,13.29
		c0,4.28,1.96,4.28,1.96,6.47c0,2.31-6.36,5.66-10,5.66c-3.58,0-3.99-4.8-4.74-4.8c-0.58,0-3.18,4.22-8.78,4.22
		c-4.8,0-9.13-3.47-9.13-8.21c0-5.43,0.98-6.47,0.98-9.53c0-2.83-1.16-5.2-1.16-7.11c0-2.49,6.12-5.84,10.75-5.84
		C328.86,79.89,330.37,81.45,330.37,84.69z"/>
	<path class="st0" d="M351.11,91.39c-0.69,0-1.21-0.35-1.21-1.33c0-3.06,1.85-9.07,4.39-9.07c0.52,0,0.81-0.23,0.81-0.81
		c0-2.72-1.68-4.39-1.68-6.18c0-3,7.8-6.88,11.73-6.88c2.43,0,3.35,1.04,3.35,3c0,2.43-0.75,6.01-0.75,9.53
		c0,0.75,0.35,1.1,0.98,1.1c1.33,0,3-0.4,3.93-0.4c0.87,0,1.27,0.69,1.27,1.44c0,4.68-1.45,8.26-3.76,8.84
		c-2.08,0.52-2.49,1.04-2.49,5.61c0,6.99,0.98,7.22,0.98,9.53s-4.45,5.78-11.62,5.78c-2.2,0-3.47-0.87-3.47-3
		c0-3.7,1.1-9.19,1.1-16.82c0-0.75-0.29-0.98-0.75-0.98C353.31,90.75,351.92,91.39,351.11,91.39z"/>
	<path class="st0" d="M393.12,91.91c-1.5,0-3.12-3.93-5.55-3.93c-0.87,0-1.39,0.64-1.39,1.33c0,3.64,12.42,4.45,12.42,12.6
		c0,4.74-4.45,9.48-11.5,9.48c-8.09,0-14.74-4.51-14.74-6.76c0-2.72,3.76-6.41,5.89-6.41c1.68,0,3.47,4.28,6.88,4.28
		c0.81,0,1.44-0.75,1.44-1.5c0-3.24-11.33-3.35-11.33-12.19c0-5.08,4.45-8.55,11.79-8.55s10.98,3.93,10.98,5.66
		C398.03,87.98,394.91,91.91,393.12,91.91z"/>
</g>
<path class="st0" d="M52.98,84.63c-7.86,0-14.25,5.99-14.25,13.35c0,7.36,6.39,13.35,14.25,13.35s14.25-5.99,14.25-13.35
	C67.23,90.62,60.84,84.63,52.98,84.63z M58.69,95.19c-0.06,0.02-0.11,0.03-0.17,0.03c-0.17,0-0.34-0.1-0.41-0.27
	c-0.09-0.23,0.01-0.49,0.24-0.58l1.99-0.83c0.23-0.09,0.49,0.01,0.58,0.24c0.09,0.23-0.01,0.49-0.24,0.58L58.69,95.19z
	 M60.34,100.65l-0.53,2.49c-0.04,0.21-0.23,0.35-0.44,0.35c-0.03,0-0.06,0-0.09-0.01c-0.24-0.05-0.39-0.29-0.34-0.53l0.53-2.49
	c0.05-0.24,0.29-0.39,0.53-0.34C60.24,100.18,60.39,100.41,60.34,100.65z M56.75,105.28c-0.09,0.1-0.21,0.15-0.33,0.15
	c-0.11,0-0.21-0.04-0.3-0.11l-1.8-1.6c-0.18-0.16-0.2-0.44-0.04-0.63c0.16-0.18,0.44-0.2,0.63-0.04l1.8,1.6
	C56.9,104.82,56.92,105.1,56.75,105.28z M51.82,103.34l-2.13,1.3c-0.07,0.04-0.15,0.07-0.23,0.07c-0.15,0-0.3-0.08-0.38-0.21
	c-0.13-0.21-0.06-0.48,0.15-0.61l2.13-1.3c0.21-0.13,0.48-0.06,0.61,0.15C52.09,102.94,52.03,103.21,51.82,103.34z M52.98,93.64
	c2.33,0,4.23,1.45,4.23,3.23c0,1.78-1.9,3.23-4.23,3.23c-2.33,0-4.23-1.45-4.23-3.23C48.75,95.09,50.65,93.64,52.98,93.64z
	 M57.63,89.17l-0.29,2.13c-0.03,0.22-0.22,0.38-0.44,0.38c-0.02,0-0.04,0-0.06,0c-0.24-0.03-0.41-0.26-0.38-0.5l0.29-2.13
	c0.03-0.24,0.26-0.41,0.5-0.38C57.5,88.7,57.67,88.92,57.63,89.17z M53.4,91.09l-2.25,0.7c-0.04,0.01-0.09,0.02-0.13,0.02
	c-0.19,0-0.37-0.12-0.43-0.31c-0.07-0.23,0.06-0.48,0.29-0.56l2.25-0.7c0.23-0.07,0.48,0.06,0.56,0.29
	C53.77,90.77,53.64,91.02,53.4,91.09z M53.48,87.5c-0.05,0.21-0.23,0.35-0.43,0.35c-0.03,0-0.06,0-0.09-0.01l-2.49-0.54
	c-0.24-0.05-0.39-0.29-0.34-0.53c0.05-0.24,0.29-0.39,0.53-0.34l2.49,0.54C53.38,87.02,53.53,87.26,53.48,87.5z M43.01,97.02
	L45,95.36c0.19-0.16,0.47-0.13,0.63,0.06c0.16,0.19,0.13,0.47-0.06,0.63l-1.99,1.66c-0.08,0.07-0.18,0.1-0.29,0.1
	c-0.13,0-0.25-0.05-0.34-0.16C42.8,97.46,42.82,97.18,43.01,97.02z M46.08,99.42c0.24-0.04,0.47,0.13,0.51,0.38l0.36,2.46
	c0.04,0.24-0.13,0.47-0.38,0.51c-0.02,0-0.04,0-0.07,0c-0.22,0-0.41-0.16-0.44-0.38l-0.36-2.46C45.66,99.68,45.83,99.46,46.08,99.42
	z M45.17,91.03c-0.2-0.14-0.26-0.41-0.12-0.62c0.14-0.2,0.41-0.26,0.62-0.12l1.95,1.31c0.2,0.14,0.26,0.41,0.12,0.62
	c-0.09,0.13-0.23,0.2-0.37,0.2c-0.09,0-0.17-0.02-0.25-0.08L45.17,91.03z M61.34,89.99c0.18-0.17,0.46-0.16,0.63,0.02l1.41,1.49
	c0.17,0.18,0.16,0.46-0.02,0.63c-0.09,0.08-0.2,0.12-0.31,0.12c-0.12,0-0.24-0.05-0.32-0.14l-1.41-1.49
	C61.15,90.45,61.16,90.16,61.34,89.99z M61.26,97.14c0.12-0.21,0.39-0.29,0.61-0.17l2.17,1.24c0.21,0.12,0.29,0.39,0.17,0.61
	c-0.08,0.14-0.23,0.22-0.39,0.22c-0.07,0-0.15-0.02-0.22-0.06l-2.17-1.24C61.21,97.62,61.13,97.35,61.26,97.14z M65.71,94.21
	c0.39,1.14,0.61,2.35,0.62,3.61c-0.26-0.66-0.7-1.11-0.81-1.84C65.42,95.29,65.66,94.84,65.71,94.21z M40.12,94.63
	c0.12,0.81,0.44,1.52,0.36,2.39c-0.09,1.05-0.65,1.62-0.75,2.49c-0.07-0.51-0.11-1.02-0.11-1.54C39.63,96.82,39.8,95.7,40.12,94.63z
	 M52.98,110.44c-6.17,0-11.37-3.92-12.9-9.24c0.72,1.43,1.95,0.81,3.14,2.01c0.93,0.93,0.54,2.11,1.89,3.15
	c1.29,0.99,2.8-0.73,4.45,0.08c1.3,0.63,1.37,2.55,3.71,2.56c2.67,0.01,2.75-2.23,4.16-2.34c1.37-0.11,3.22,0.16,4.26-0.89
	c1.07-1.08,0.53-1.99,1.9-3.45c0.82-0.88,1.83-0.85,2.42-1.66C64.71,106.24,59.36,110.44,52.98,110.44z"/>
<path class="st0" d="M262.43,84.63c-7.86,0-14.25,5.99-14.25,13.35c0,7.36,6.39,13.35,14.25,13.35c7.86,0,14.25-5.99,14.25-13.35
	C276.68,90.62,270.29,84.63,262.43,84.63z M268.14,95.19c-0.06,0.02-0.11,0.03-0.17,0.03c-0.17,0-0.34-0.1-0.41-0.27
	c-0.09-0.23,0.01-0.49,0.24-0.58l1.99-0.83c0.23-0.09,0.49,0.01,0.58,0.24c0.09,0.23-0.01,0.49-0.24,0.58L268.14,95.19z
	 M269.79,100.65l-0.53,2.49c-0.04,0.21-0.23,0.35-0.44,0.35c-0.03,0-0.06,0-0.09-0.01c-0.24-0.05-0.39-0.29-0.34-0.53l0.53-2.49
	c0.05-0.24,0.29-0.39,0.53-0.34C269.69,100.18,269.84,100.41,269.79,100.65z M266.2,105.28c-0.09,0.1-0.21,0.15-0.33,0.15
	c-0.11,0-0.21-0.04-0.3-0.11l-1.8-1.6c-0.18-0.16-0.2-0.44-0.04-0.63c0.16-0.18,0.44-0.2,0.63-0.04l1.8,1.6
	C266.35,104.82,266.37,105.1,266.2,105.28z M261.26,103.34l-2.13,1.3c-0.07,0.04-0.15,0.07-0.23,0.07c-0.15,0-0.3-0.08-0.38-0.21
	c-0.13-0.21-0.06-0.48,0.15-0.61l2.13-1.3c0.21-0.13,0.48-0.06,0.61,0.15C261.54,102.94,261.47,103.21,261.26,103.34z M262.43,93.64
	c2.33,0,4.23,1.45,4.23,3.23c0,1.78-1.9,3.23-4.23,3.23c-2.33,0-4.23-1.45-4.23-3.23C258.2,95.08,260.1,93.64,262.43,93.64z
	 M267.08,89.17l-0.29,2.13c-0.03,0.22-0.22,0.38-0.44,0.38c-0.02,0-0.04,0-0.06,0c-0.24-0.03-0.41-0.26-0.38-0.5l0.29-2.13
	c0.03-0.24,0.26-0.41,0.5-0.38C266.95,88.7,267.12,88.92,267.08,89.17z M262.85,91.09l-2.25,0.7c-0.04,0.01-0.09,0.02-0.13,0.02
	c-0.19,0-0.37-0.12-0.43-0.31c-0.07-0.23,0.06-0.48,0.29-0.56l2.25-0.7c0.23-0.07,0.48,0.06,0.56,0.29
	C263.21,90.77,263.08,91.02,262.85,91.09z M262.93,87.5c-0.05,0.21-0.23,0.35-0.43,0.35c-0.03,0-0.06,0-0.09-0.01l-2.49-0.54
	c-0.24-0.05-0.39-0.29-0.34-0.53c0.05-0.24,0.29-0.39,0.53-0.34l2.49,0.54C262.83,87.02,262.98,87.26,262.93,87.5z M252.46,97.02
	l1.99-1.66c0.19-0.16,0.47-0.13,0.63,0.06c0.16,0.19,0.13,0.47-0.06,0.63l-1.99,1.66c-0.08,0.07-0.18,0.1-0.29,0.1
	c-0.13,0-0.25-0.05-0.34-0.16C252.25,97.46,252.27,97.18,252.46,97.02z M255.52,99.42c0.24-0.04,0.47,0.13,0.51,0.38l0.36,2.46
	c0.04,0.24-0.13,0.47-0.38,0.51c-0.02,0-0.04,0-0.07,0c-0.22,0-0.41-0.16-0.44-0.38l-0.36-2.46
	C255.11,99.68,255.28,99.46,255.52,99.42z M254.61,91.03c-0.2-0.14-0.26-0.41-0.12-0.62c0.14-0.2,0.41-0.26,0.62-0.12l1.95,1.31
	c0.2,0.14,0.26,0.41,0.12,0.62c-0.09,0.13-0.23,0.2-0.37,0.2c-0.09,0-0.17-0.02-0.25-0.08L254.61,91.03z M270.78,89.99
	c0.18-0.17,0.46-0.16,0.63,0.02l1.41,1.49c0.17,0.18,0.16,0.46-0.02,0.63c-0.09,0.08-0.2,0.12-0.31,0.12
	c-0.12,0-0.24-0.05-0.32-0.14l-1.41-1.49C270.6,90.45,270.61,90.16,270.78,89.99z M270.7,97.14c0.12-0.21,0.39-0.29,0.61-0.17
	l2.17,1.24c0.21,0.12,0.29,0.39,0.17,0.61c-0.08,0.14-0.23,0.22-0.39,0.22c-0.07,0-0.15-0.02-0.22-0.06l-2.17-1.24
	C270.66,97.62,270.58,97.35,270.7,97.14z M275.16,94.21c0.39,1.14,0.61,2.35,0.62,3.61c-0.26-0.66-0.7-1.11-0.81-1.84
	C274.87,95.29,275.1,94.84,275.16,94.21z M249.57,94.63c0.12,0.81,0.44,1.52,0.36,2.39c-0.09,1.05-0.65,1.62-0.75,2.49
	c-0.07-0.51-0.11-1.02-0.11-1.54C249.07,96.82,249.25,95.7,249.57,94.63z M262.43,110.44c-6.17,0-11.37-3.92-12.9-9.24
	c0.72,1.43,1.95,0.81,3.14,2.01c0.93,0.93,0.54,2.11,1.89,3.15c1.29,0.99,2.8-0.73,4.45,0.08c1.3,0.63,1.37,2.55,3.71,2.56
	c2.67,0.01,2.75-2.23,4.16-2.34c1.37-0.11,3.22,0.16,4.26-0.89c1.07-1.08,0.53-1.99,1.9-3.45c0.82-0.88,1.83-0.85,2.42-1.66
	C274.16,106.24,268.81,110.44,262.43,110.44z"/>
</svg>
